<svg width="307" height="63" viewBox="0 0 307 63" fill="none" xmlns="http://www.w3.org/2000/svg">
<path d="M58.7798 47.25C55.3277 53.2292 50.0067 57.9087 43.6354 60.5686C37.2641 63.2284 30.1954 63.7214 23.5166 61.9716C16.8378 60.2217 10.9188 56.3261 6.67025 50.8839C2.42167 45.4416 0.0787663 38.7543 0.00195089 31.8505C-0.0748645 24.9467 2.11866 18.2088 6.2451 12.6734C10.3716 7.13801 16.2023 3.11163 22.8406 1.21364C29.4788 -0.684355 36.5567 -0.348822 42.9856 2.16862C49.4145 4.68607 54.8383 9.24597 58.4226 15.1469L39.0821 26.8945C38.0727 25.2327 36.5452 23.9485 34.7347 23.2395C32.9241 22.5305 30.9308 22.436 29.0613 22.9706C27.1918 23.5051 25.5497 24.639 24.3875 26.1979C23.2254 27.7569 22.6077 29.6544 22.6293 31.5987C22.6509 33.543 23.3108 35.4263 24.5073 36.959C25.7038 38.4917 27.3707 39.5888 29.2517 40.0816C31.1326 40.5744 33.1233 40.4356 34.9177 39.6865C36.712 38.9374 38.2105 37.6195 39.1827 35.9356L58.7798 47.25Z" fill="#6C6DF5"/>
<path d="M95.9355 34.9995C95.9355 37.4487 95.1445 39.3061 93.5625 40.5718C91.9922 41.8374 89.8125 42.4702 87.0234 42.4702H77.5664V16.8765H86.3027C89.1269 16.8765 91.3359 17.439 92.9297 18.564C94.5351 19.6772 95.3379 21.4233 95.3379 23.8022C95.3379 24.9741 95.0215 26.0405 94.3887 27.0015C93.7558 27.9507 92.8242 28.6772 91.5937 29.1811C93.082 29.5561 94.1777 30.2886 94.8808 31.3784C95.584 32.4683 95.9355 33.6753 95.9355 34.9995ZM86.3027 20.5327H82.1015V27.6694H86.3555C87.7734 27.6694 88.8691 27.3589 89.6426 26.7378C90.416 26.1167 90.8027 25.2378 90.8027 24.1011C90.8027 22.8472 90.4336 21.939 89.6953 21.3765C88.9687 20.814 87.8379 20.5327 86.3027 20.5327ZM91.418 34.9819C91.418 33.7515 91.0898 32.7788 90.4336 32.064C89.7773 31.3374 88.7051 30.9741 87.2168 30.9741H82.1015V38.8315H87.0234C88.4765 38.8315 89.5723 38.4741 90.3105 37.7593C91.0488 37.0444 91.418 36.1186 91.418 34.9819Z" fill="#6C6DF5"/>
<path d="M110.613 29.6206C110.613 28.6362 110.338 27.8511 109.787 27.2651C109.248 26.6792 108.428 26.3862 107.326 26.3862C106.33 26.3862 105.533 26.6323 104.936 27.1245C104.35 27.6167 104.057 28.2319 104.057 28.9702H99.6973C99.6973 27.9507 100.02 26.9956 100.664 26.105C101.309 25.2026 102.217 24.4761 103.389 23.9253C104.572 23.3745 105.967 23.0991 107.572 23.0991C109.717 23.0991 111.486 23.644 112.881 24.7339C114.275 25.8237 114.973 27.4643 114.973 29.6558V38.0405C114.973 39.7749 115.219 41.1518 115.711 42.1714V42.4702H111.246C111.047 42.0249 110.889 41.4214 110.771 40.6597C110.221 41.2573 109.523 41.7671 108.68 42.189C107.848 42.6108 106.863 42.8218 105.727 42.8218C104.484 42.8218 103.377 42.5757 102.404 42.0835C101.432 41.5913 100.664 40.9175 100.102 40.062C99.5508 39.2065 99.2754 38.2339 99.2754 37.144C99.2754 35.1284 100.031 33.5815 101.543 32.5034C103.055 31.4253 105.199 30.8862 107.977 30.8862H110.613V29.6206ZM106.588 39.3589C107.572 39.3589 108.416 39.1304 109.119 38.6733C109.822 38.2046 110.32 37.6831 110.613 37.1089V33.5757H108.293C106.746 33.5757 105.58 33.8628 104.795 34.437C104.021 34.9995 103.635 35.7671 103.635 36.7397C103.635 37.4897 103.887 38.1167 104.391 38.6206C104.906 39.1128 105.639 39.3589 106.588 39.3589Z" fill="#6C6DF5"/>
<path d="M123.744 42.4702H119.385V23.4507H123.533L123.656 25.6479C124.137 24.8628 124.734 24.2417 125.449 23.7847C126.176 23.3276 127.025 23.0991 127.998 23.0991C128.244 23.0991 128.52 23.1225 128.824 23.1694C129.129 23.2163 129.357 23.269 129.51 23.3276L129.475 27.4585C129.205 27.4233 128.918 27.394 128.613 27.3706C128.32 27.3354 128.027 27.3179 127.734 27.3179C126.703 27.3179 125.859 27.5171 125.203 27.9155C124.547 28.314 124.061 28.8765 123.744 29.603V42.4702Z" fill="#6C6DF5"/>
<path d="M142.5 29.6206C142.5 28.6362 142.225 27.8511 141.674 27.2651C141.135 26.6792 140.314 26.3862 139.213 26.3862C138.217 26.3862 137.42 26.6323 136.822 27.1245C136.236 27.6167 135.943 28.2319 135.943 28.9702H131.584C131.584 27.9507 131.906 26.9956 132.551 26.105C133.195 25.2026 134.104 24.4761 135.275 23.9253C136.459 23.3745 137.854 23.0991 139.459 23.0991C141.604 23.0991 143.373 23.644 144.768 24.7339C146.162 25.8237 146.859 27.4643 146.859 29.6558V38.0405C146.859 39.7749 147.105 41.1518 147.598 42.1714V42.4702H143.133C142.934 42.0249 142.775 41.4214 142.658 40.6597C142.107 41.2573 141.41 41.7671 140.566 42.189C139.734 42.6108 138.75 42.8218 137.613 42.8218C136.371 42.8218 135.264 42.5757 134.291 42.0835C133.318 41.5913 132.551 40.9175 131.988 40.062C131.437 39.2065 131.162 38.2339 131.162 37.144C131.162 35.1284 131.918 33.5815 133.43 32.5034C134.941 31.4253 137.086 30.8862 139.863 30.8862H142.5V29.6206ZM138.475 39.3589C139.459 39.3589 140.303 39.1304 141.006 38.6733C141.709 38.2046 142.207 37.6831 142.5 37.1089V33.5757H140.18C138.633 33.5757 137.467 33.8628 136.682 34.437C135.908 34.9995 135.521 35.7671 135.521 36.7397C135.521 37.4897 135.773 38.1167 136.277 38.6206C136.793 39.1128 137.525 39.3589 138.475 39.3589Z" fill="#6C6DF5"/>
<path d="M155.578 42.4702H151.219V23.4507H155.314L155.455 25.7007C156.123 24.8686 156.926 24.23 157.863 23.7847C158.801 23.3276 159.844 23.0991 160.992 23.0991C162.82 23.0991 164.285 23.6382 165.387 24.7163C166.5 25.7827 167.057 27.6167 167.057 30.2183V42.4702H162.68V30.1831C162.68 28.8589 162.393 27.9448 161.818 27.4409C161.256 26.9253 160.436 26.6675 159.357 26.6675C158.49 26.6675 157.734 26.8784 157.09 27.3003C156.457 27.7104 155.953 28.2671 155.578 28.9702V42.4702Z" fill="#6C6DF5"/>
<path d="M170.59 32.8022C170.59 30.8804 170.895 29.1929 171.504 27.7397C172.125 26.2749 173.004 25.1382 174.141 24.3296C175.289 23.5093 176.648 23.0991 178.219 23.0991C179.367 23.0991 180.357 23.2983 181.189 23.6968C182.021 24.0835 182.73 24.6343 183.316 25.3491L183.492 23.4507H187.465V41.9253C187.465 43.6362 187.096 45.0893 186.357 46.2847C185.619 47.48 184.594 48.3882 183.281 49.0093C181.98 49.6421 180.469 49.9585 178.746 49.9585C178.02 49.9585 177.211 49.853 176.32 49.6421C175.441 49.4429 174.586 49.1147 173.754 48.6577C172.922 48.2007 172.225 47.603 171.662 46.8647L173.701 44.228C174.369 45.0249 175.113 45.6108 175.934 45.9858C176.754 46.3608 177.615 46.5483 178.518 46.5483C179.936 46.5483 181.049 46.1558 181.857 45.3706C182.678 44.5854 183.088 43.4604 183.088 41.9956V40.7124C182.502 41.3804 181.805 41.9018 180.996 42.2768C180.187 42.6401 179.25 42.8218 178.184 42.8218C176.637 42.8218 175.295 42.4058 174.158 41.5737C173.021 40.73 172.143 39.5815 171.521 38.1284C170.9 36.6753 170.59 35.0229 170.59 33.1714V32.8022ZM174.949 33.1714C174.949 34.2964 175.102 35.3218 175.406 36.2476C175.711 37.1616 176.18 37.894 176.812 38.4448C177.457 38.9839 178.283 39.2534 179.291 39.2534C180.24 39.2534 181.02 39.0542 181.629 38.6558C182.238 38.2573 182.725 37.73 183.088 37.0737V28.7944C182.725 28.1382 182.238 27.6225 181.629 27.2475C181.02 26.8608 180.252 26.6675 179.326 26.6675C178.318 26.6675 177.492 26.9429 176.848 27.4936C176.203 28.0444 175.723 28.7827 175.406 29.7085C175.102 30.6343 174.949 31.6655 174.949 32.8022V33.1714Z" fill="#6C6DF5"/>
<path d="M202.441 29.6206C202.441 28.6362 202.166 27.8511 201.615 27.2651C201.076 26.6792 200.256 26.3862 199.154 26.3862C198.158 26.3862 197.361 26.6323 196.764 27.1245C196.178 27.6167 195.885 28.2319 195.885 28.9702H191.525C191.525 27.9507 191.848 26.9956 192.492 26.105C193.137 25.2026 194.045 24.4761 195.217 23.9253C196.4 23.3745 197.795 23.0991 199.4 23.0991C201.545 23.0991 203.314 23.644 204.709 24.7339C206.104 25.8237 206.801 27.4643 206.801 29.6558V38.0405C206.801 39.7749 207.047 41.1518 207.539 42.1714V42.4702H203.074C202.875 42.0249 202.717 41.4214 202.6 40.6597C202.049 41.2573 201.352 41.7671 200.508 42.189C199.676 42.6108 198.691 42.8218 197.555 42.8218C196.312 42.8218 195.205 42.5757 194.232 42.0835C193.26 41.5913 192.492 40.9175 191.93 40.062C191.379 39.2065 191.104 38.2339 191.104 37.144C191.104 35.1284 191.859 33.5815 193.371 32.5034C194.883 31.4253 197.027 30.8862 199.805 30.8862H202.441V29.6206ZM198.416 39.3589C199.4 39.3589 200.244 39.1304 200.947 38.6733C201.65 38.2046 202.148 37.6831 202.441 37.1089V33.5757H200.121C198.574 33.5757 197.408 33.8628 196.623 34.437C195.85 34.9995 195.463 35.7671 195.463 36.7397C195.463 37.4897 195.715 38.1167 196.219 38.6206C196.734 39.1128 197.467 39.3589 198.416 39.3589Z" fill="#6C6DF5"/>
<path d="M221.83 23.4507H226.488L218.877 45.353C218.654 45.9858 218.32 46.6772 217.875 47.4272C217.441 48.1772 216.832 48.8159 216.047 49.3433C215.262 49.8823 214.236 50.1518 212.971 50.1518C212.584 50.1518 212.215 50.1226 211.863 50.064C211.523 50.0054 211.195 49.9292 210.879 49.8354V46.478C210.996 46.4897 211.137 46.5015 211.301 46.5132C211.465 46.5249 211.6 46.5308 211.705 46.5308C212.748 46.5308 213.533 46.3433 214.061 45.9683C214.6 45.5933 215.021 44.9546 215.326 44.0522L215.941 42.4175L209.244 23.4507H213.955L217.963 36.2476L221.83 23.4507Z" fill="#6C6DF5"/>
<path d="M248.004 33.0308H242.766V42.4702H238.23V16.8765H248.004C249.984 16.8765 251.672 17.228 253.066 17.9311C254.473 18.6343 255.539 19.6069 256.266 20.8491C257.004 22.0796 257.373 23.4858 257.373 25.0679C257.373 27.5405 256.553 29.4858 254.912 30.9038C253.283 32.3218 250.98 33.0308 248.004 33.0308ZM248.004 20.5327H242.766V29.3745H248.004C249.703 29.3745 250.928 28.9761 251.678 28.1792C252.428 27.3706 252.803 26.3452 252.803 25.103C252.803 24.3061 252.639 23.562 252.311 22.8706C251.982 22.1792 251.467 21.6167 250.764 21.1831C250.061 20.7495 249.141 20.5327 248.004 20.5327Z" fill="#6C6DF5"/>
<path d="M259.799 32.7847C259.799 30.9331 260.15 29.2808 260.854 27.8276C261.557 26.3628 262.564 25.2085 263.877 24.3647C265.201 23.521 266.789 23.0991 268.641 23.0991C270.516 23.0991 272.115 23.521 273.439 24.3647C274.764 25.2085 275.771 26.3628 276.463 27.8276C277.166 29.2808 277.518 30.9331 277.518 32.7847V33.1538C277.518 34.9936 277.166 36.646 276.463 38.1108C275.771 39.564 274.764 40.7124 273.439 41.5561C272.127 42.3999 270.539 42.8218 268.676 42.8218C266.812 42.8218 265.219 42.3999 263.895 41.5561C262.57 40.7124 261.557 39.564 260.854 38.1108C260.15 36.646 259.799 34.9936 259.799 33.1538V32.7847ZM264.158 33.1538C264.158 34.2788 264.311 35.3101 264.615 36.2476C264.932 37.1733 265.424 37.9175 266.092 38.48C266.76 39.0425 267.621 39.3237 268.676 39.3237C269.719 39.3237 270.568 39.0425 271.225 38.48C271.893 37.9175 272.379 37.1733 272.684 36.2476C273 35.3101 273.158 34.2788 273.158 33.1538V32.7847C273.158 31.6831 273 30.6636 272.684 29.7261C272.379 28.7886 271.893 28.0327 271.225 27.4585C270.557 26.8843 269.695 26.5972 268.641 26.5972C267.598 26.5972 266.742 26.8843 266.074 27.4585C265.418 28.0327 264.932 28.7886 264.615 29.7261C264.311 30.6636 264.158 31.6831 264.158 32.7847V33.1538Z" fill="#6C6DF5"/>
<path d="M280.312 32.8022C280.312 30.8804 280.617 29.1929 281.227 27.7397C281.848 26.2749 282.727 25.1382 283.863 24.3296C285.012 23.5093 286.371 23.0991 287.941 23.0991C289.09 23.0991 290.08 23.2983 290.912 23.6968C291.744 24.0835 292.453 24.6343 293.039 25.3491L293.215 23.4507H297.188V41.9253C297.188 43.6362 296.818 45.0893 296.08 46.2847C295.342 47.48 294.316 48.3882 293.004 49.0093C291.703 49.6421 290.191 49.9585 288.469 49.9585C287.742 49.9585 286.934 49.853 286.043 49.6421C285.164 49.4429 284.309 49.1147 283.477 48.6577C282.645 48.2007 281.947 47.603 281.385 46.8647L283.424 44.228C284.092 45.0249 284.836 45.6108 285.656 45.9858C286.477 46.3608 287.338 46.5483 288.24 46.5483C289.658 46.5483 290.771 46.1558 291.58 45.3706C292.4 44.5854 292.811 43.4604 292.811 41.9956V40.7124C292.225 41.3804 291.527 41.9018 290.719 42.2768C289.91 42.6401 288.973 42.8218 287.906 42.8218C286.359 42.8218 285.018 42.4058 283.881 41.5737C282.744 40.73 281.865 39.5815 281.244 38.1284C280.623 36.6753 280.312 35.0229 280.312 33.1714V32.8022ZM284.672 33.1714C284.672 34.2964 284.824 35.3218 285.129 36.2476C285.434 37.1616 285.902 37.894 286.535 38.4448C287.18 38.9839 288.006 39.2534 289.014 39.2534C289.963 39.2534 290.742 39.0542 291.352 38.6558C291.961 38.2573 292.447 37.73 292.811 37.0737V28.7944C292.447 28.1382 291.961 27.6225 291.352 27.2475C290.742 26.8608 289.975 26.6675 289.049 26.6675C288.041 26.6675 287.215 26.9429 286.57 27.4936C285.926 28.0444 285.445 28.7827 285.129 29.7085C284.824 30.6343 284.672 31.6655 284.672 32.8022V33.1714Z" fill="#6C6DF5"/>
<path d="M301.494 18.4761C301.494 17.8081 301.711 17.2573 302.145 16.8237C302.578 16.3784 303.182 16.1558 303.955 16.1558C304.729 16.1558 305.338 16.3784 305.783 16.8237C306.229 17.2573 306.451 17.8081 306.451 18.4761C306.451 19.1323 306.229 19.6831 305.783 20.1284C305.338 20.562 304.729 20.7788 303.955 20.7788C303.182 20.7788 302.578 20.562 302.145 20.1284C301.711 19.6831 301.494 19.1323 301.494 18.4761ZM306.135 42.4702H301.775V23.4507H306.135V42.4702Z" fill="#6C6DF5"/>
</svg>
