<svg width="307" height="64" viewBox="0 0 307 64" fill="none" xmlns="http://www.w3.org/2000/svg">
<path d="M58.7798 47.7798C55.3277 53.759 50.0067 58.4385 43.6354 61.0984C37.2641 63.7582 30.1954 64.2512 23.5166 62.5013C16.8378 60.7515 10.9188 56.8559 6.67025 51.4136C2.42167 45.9714 0.0787663 39.2841 0.00195089 32.3803C-0.0748645 25.4765 2.11866 18.7386 6.2451 13.2032C10.3716 7.66779 16.2023 3.64141 22.8406 1.74342C29.4788 -0.15457 36.5567 0.180963 42.9856 2.69841C49.4145 5.21585 54.8383 9.77576 58.4226 15.6767L39.0821 27.4243C38.0727 25.7625 36.5452 24.4783 34.7347 23.7693C32.9241 23.0603 30.9308 22.9658 29.0613 23.5003C27.1918 24.0349 25.5497 25.1688 24.3875 26.7277C23.2254 28.2866 22.6077 30.1842 22.6293 32.1285C22.6509 34.0728 23.3108 35.9561 24.5073 37.4888C25.7038 39.0215 27.3707 40.1186 29.2517 40.6114C31.1326 41.1042 33.1233 40.9654 34.9177 40.2163C36.712 39.4672 38.2105 38.1493 39.1827 36.4654L58.7798 47.7798Z" fill="white"/>
<path d="M95.9355 35.5293C95.9355 37.9785 95.1445 39.8359 93.5625 41.1016C91.9922 42.3672 89.8125 43 87.0234 43H77.5664V17.4062H86.3027C89.1269 17.4062 91.3359 17.9687 92.9297 19.0937C94.5351 20.207 95.3379 21.9531 95.3379 24.332C95.3379 25.5039 95.0215 26.5703 94.3887 27.5312C93.7558 28.4805 92.8242 29.207 91.5937 29.7109C93.082 30.0859 94.1777 30.8183 94.8808 31.9082C95.584 32.998 95.9355 34.2051 95.9355 35.5293ZM86.3027 21.0625H82.1015V28.1992H86.3555C87.7734 28.1992 88.8691 27.8887 89.6426 27.2676C90.416 26.6465 90.8027 25.7676 90.8027 24.6308C90.8027 23.3769 90.4336 22.4687 89.6953 21.9062C88.9687 21.3437 87.8379 21.0625 86.3027 21.0625ZM91.418 35.5117C91.418 34.2812 91.0898 33.3086 90.4336 32.5937C89.7773 31.8672 88.7051 31.5039 87.2168 31.5039H82.1015V39.3613H87.0234C88.4765 39.3613 89.5723 39.0039 90.3105 38.2891C91.0488 37.5742 91.418 36.6484 91.418 35.5117Z" fill="white"/>
<path d="M110.613 30.1504C110.613 29.166 110.338 28.3808 109.787 27.7949C109.248 27.209 108.428 26.916 107.326 26.916C106.33 26.916 105.533 27.1621 104.936 27.6543C104.35 28.1465 104.057 28.7617 104.057 29.5H99.6973C99.6973 28.4805 100.02 27.5254 100.664 26.6348C101.309 25.7324 102.217 25.0058 103.389 24.4551C104.572 23.9043 105.967 23.6289 107.572 23.6289C109.717 23.6289 111.486 24.1738 112.881 25.2637C114.275 26.3535 114.973 27.9941 114.973 30.1855V38.5703C114.973 40.3047 115.219 41.6816 115.711 42.7012V43H111.246C111.047 42.5547 110.889 41.9512 110.771 41.1894C110.221 41.7871 109.523 42.2969 108.68 42.7187C107.848 43.1406 106.863 43.3516 105.727 43.3516C104.484 43.3516 103.377 43.1055 102.404 42.6133C101.432 42.1211 100.664 41.4473 100.102 40.5918C99.5508 39.7363 99.2754 38.7637 99.2754 37.6738C99.2754 35.6582 100.031 34.1113 101.543 33.0332C103.055 31.9551 105.199 31.416 107.977 31.416H110.613V30.1504ZM106.588 39.8887C107.572 39.8887 108.416 39.6601 109.119 39.2031C109.822 38.7344 110.32 38.2129 110.613 37.6387V34.1055H108.293C106.746 34.1055 105.58 34.3926 104.795 34.9668C104.021 35.5293 103.635 36.2969 103.635 37.2695C103.635 38.0195 103.887 38.6465 104.391 39.1504C104.906 39.6426 105.639 39.8887 106.588 39.8887Z" fill="white"/>
<path d="M123.744 43H119.385V23.9805H123.533L123.656 26.1777C124.137 25.3926 124.734 24.7715 125.449 24.3144C126.176 23.8574 127.025 23.6289 127.998 23.6289C128.244 23.6289 128.52 23.6523 128.824 23.6992C129.129 23.7461 129.357 23.7988 129.51 23.8574L129.475 27.9883C129.205 27.9531 128.918 27.9238 128.613 27.9004C128.32 27.8652 128.027 27.8476 127.734 27.8476C126.703 27.8476 125.859 28.0469 125.203 28.4453C124.547 28.8437 124.061 29.4062 123.744 30.1328V43Z" fill="white"/>
<path d="M142.5 30.1504C142.5 29.166 142.225 28.3808 141.674 27.7949C141.135 27.209 140.314 26.916 139.213 26.916C138.217 26.916 137.42 27.1621 136.822 27.6543C136.236 28.1465 135.943 28.7617 135.943 29.5H131.584C131.584 28.4805 131.906 27.5254 132.551 26.6348C133.195 25.7324 134.104 25.0058 135.275 24.4551C136.459 23.9043 137.854 23.6289 139.459 23.6289C141.604 23.6289 143.373 24.1738 144.768 25.2637C146.162 26.3535 146.859 27.9941 146.859 30.1855V38.5703C146.859 40.3047 147.105 41.6816 147.598 42.7012V43H143.133C142.934 42.5547 142.775 41.9512 142.658 41.1894C142.107 41.7871 141.41 42.2969 140.566 42.7187C139.734 43.1406 138.75 43.3516 137.613 43.3516C136.371 43.3516 135.264 43.1055 134.291 42.6133C133.318 42.1211 132.551 41.4473 131.988 40.5918C131.437 39.7363 131.162 38.7637 131.162 37.6738C131.162 35.6582 131.918 34.1113 133.43 33.0332C134.941 31.9551 137.086 31.416 139.863 31.416H142.5V30.1504ZM138.475 39.8887C139.459 39.8887 140.303 39.6601 141.006 39.2031C141.709 38.7344 142.207 38.2129 142.5 37.6387V34.1055H140.18C138.633 34.1055 137.467 34.3926 136.682 34.9668C135.908 35.5293 135.521 36.2969 135.521 37.2695C135.521 38.0195 135.773 38.6465 136.277 39.1504C136.793 39.6426 137.525 39.8887 138.475 39.8887Z" fill="white"/>
<path d="M155.578 43H151.219V23.9805H155.314L155.455 26.2305C156.123 25.3984 156.926 24.7598 157.863 24.3144C158.801 23.8574 159.844 23.6289 160.992 23.6289C162.82 23.6289 164.285 24.168 165.387 25.2461C166.5 26.3125 167.057 28.1465 167.057 30.748V43H162.68V30.7129C162.68 29.3887 162.393 28.4746 161.818 27.9707C161.256 27.4551 160.436 27.1973 159.357 27.1973C158.49 27.1973 157.734 27.4082 157.09 27.8301C156.457 28.2402 155.953 28.7969 155.578 29.5V43Z" fill="white"/>
<path d="M170.59 33.332C170.59 31.4101 170.895 29.7226 171.504 28.2695C172.125 26.8047 173.004 25.668 174.141 24.8594C175.289 24.0391 176.648 23.6289 178.219 23.6289C179.367 23.6289 180.357 23.8281 181.189 24.2266C182.021 24.6133 182.73 25.1641 183.316 25.8789L183.492 23.9805H187.465V42.4551C187.465 44.166 187.096 45.6191 186.357 46.8144C185.619 48.0098 184.594 48.918 183.281 49.5391C181.98 50.1719 180.469 50.4883 178.746 50.4883C178.02 50.4883 177.211 50.3828 176.32 50.1719C175.441 49.9726 174.586 49.6445 173.754 49.1875C172.922 48.7305 172.225 48.1328 171.662 47.3945L173.701 44.7578C174.369 45.5547 175.113 46.1406 175.934 46.5156C176.754 46.8906 177.615 47.0781 178.518 47.0781C179.936 47.0781 181.049 46.6855 181.857 45.9004C182.678 45.1152 183.088 43.9902 183.088 42.5254V41.2422C182.502 41.9101 181.805 42.4316 180.996 42.8066C180.187 43.1699 179.25 43.3516 178.184 43.3516C176.637 43.3516 175.295 42.9355 174.158 42.1035C173.021 41.2598 172.143 40.1113 171.521 38.6582C170.9 37.2051 170.59 35.5527 170.59 33.7012V33.332ZM174.949 33.7012C174.949 34.8262 175.102 35.8516 175.406 36.7773C175.711 37.6914 176.18 38.4238 176.812 38.9746C177.457 39.5137 178.283 39.7832 179.291 39.7832C180.24 39.7832 181.02 39.584 181.629 39.1855C182.238 38.7871 182.725 38.2598 183.088 37.6035V29.3242C182.725 28.668 182.238 28.1523 181.629 27.7773C181.02 27.3906 180.252 27.1973 179.326 27.1973C178.318 27.1973 177.492 27.4726 176.848 28.0234C176.203 28.5742 175.723 29.3125 175.406 30.2383C175.102 31.1641 174.949 32.1953 174.949 33.332V33.7012Z" fill="white"/>
<path d="M202.441 30.1504C202.441 29.166 202.166 28.3808 201.615 27.7949C201.076 27.209 200.256 26.916 199.154 26.916C198.158 26.916 197.361 27.1621 196.764 27.6543C196.178 28.1465 195.885 28.7617 195.885 29.5H191.525C191.525 28.4805 191.848 27.5254 192.492 26.6348C193.137 25.7324 194.045 25.0058 195.217 24.4551C196.4 23.9043 197.795 23.6289 199.4 23.6289C201.545 23.6289 203.314 24.1738 204.709 25.2637C206.104 26.3535 206.801 27.9941 206.801 30.1855V38.5703C206.801 40.3047 207.047 41.6816 207.539 42.7012V43H203.074C202.875 42.5547 202.717 41.9512 202.6 41.1894C202.049 41.7871 201.352 42.2969 200.508 42.7187C199.676 43.1406 198.691 43.3516 197.555 43.3516C196.312 43.3516 195.205 43.1055 194.232 42.6133C193.26 42.1211 192.492 41.4473 191.93 40.5918C191.379 39.7363 191.104 38.7637 191.104 37.6738C191.104 35.6582 191.859 34.1113 193.371 33.0332C194.883 31.9551 197.027 31.416 199.805 31.416H202.441V30.1504ZM198.416 39.8887C199.4 39.8887 200.244 39.6601 200.947 39.2031C201.65 38.7344 202.148 38.2129 202.441 37.6387V34.1055H200.121C198.574 34.1055 197.408 34.3926 196.623 34.9668C195.85 35.5293 195.463 36.2969 195.463 37.2695C195.463 38.0195 195.715 38.6465 196.219 39.1504C196.734 39.6426 197.467 39.8887 198.416 39.8887Z" fill="white"/>
<path d="M221.83 23.9805H226.488L218.877 45.8828C218.654 46.5156 218.32 47.207 217.875 47.957C217.441 48.707 216.832 49.3457 216.047 49.873C215.262 50.4121 214.236 50.6816 212.971 50.6816C212.584 50.6816 212.215 50.6523 211.863 50.5937C211.523 50.5351 211.195 50.459 210.879 50.3652V47.0078C210.996 47.0195 211.137 47.0312 211.301 47.043C211.465 47.0547 211.6 47.0605 211.705 47.0605C212.748 47.0605 213.533 46.873 214.061 46.498C214.6 46.123 215.021 45.4844 215.326 44.582L215.941 42.9473L209.244 23.9805H213.955L217.963 36.7773L221.83 23.9805Z" fill="white"/>
<path d="M248.004 33.5605H242.766V43H238.23V17.4062H248.004C249.984 17.4062 251.672 17.7578 253.066 18.4609C254.473 19.1641 255.539 20.1367 256.266 21.3789C257.004 22.6094 257.373 24.0156 257.373 25.5976C257.373 28.0703 256.553 30.0156 254.912 31.4336C253.283 32.8516 250.98 33.5605 248.004 33.5605ZM248.004 21.0625H242.766V29.9043H248.004C249.703 29.9043 250.928 29.5058 251.678 28.709C252.428 27.9004 252.803 26.875 252.803 25.6328C252.803 24.8359 252.639 24.0918 252.311 23.4004C251.982 22.709 251.467 22.1465 250.764 21.7129C250.061 21.2793 249.141 21.0625 248.004 21.0625Z" fill="white"/>
<path d="M259.799 33.3144C259.799 31.4629 260.15 29.8105 260.854 28.3574C261.557 26.8926 262.564 25.7383 263.877 24.8945C265.201 24.0508 266.789 23.6289 268.641 23.6289C270.516 23.6289 272.115 24.0508 273.439 24.8945C274.764 25.7383 275.771 26.8926 276.463 28.3574C277.166 29.8105 277.518 31.4629 277.518 33.3144V33.6836C277.518 35.5234 277.166 37.1758 276.463 38.6406C275.771 40.0937 274.764 41.2422 273.439 42.0859C272.127 42.9297 270.539 43.3516 268.676 43.3516C266.812 43.3516 265.219 42.9297 263.895 42.0859C262.57 41.2422 261.557 40.0937 260.854 38.6406C260.15 37.1758 259.799 35.5234 259.799 33.6836V33.3144ZM264.158 33.6836C264.158 34.8086 264.311 35.8398 264.615 36.7773C264.932 37.7031 265.424 38.4473 266.092 39.0098C266.76 39.5723 267.621 39.8535 268.676 39.8535C269.719 39.8535 270.568 39.5723 271.225 39.0098C271.893 38.4473 272.379 37.7031 272.684 36.7773C273 35.8398 273.158 34.8086 273.158 33.6836V33.3144C273.158 32.2129 273 31.1933 272.684 30.2558C272.379 29.3183 271.893 28.5625 271.225 27.9883C270.557 27.4141 269.695 27.1269 268.641 27.1269C267.598 27.1269 266.742 27.4141 266.074 27.9883C265.418 28.5625 264.932 29.3183 264.615 30.2558C264.311 31.1933 264.158 32.2129 264.158 33.3144V33.6836Z" fill="white"/>
<path d="M280.312 33.332C280.312 31.4101 280.617 29.7226 281.227 28.2695C281.848 26.8047 282.727 25.668 283.863 24.8594C285.012 24.0391 286.371 23.6289 287.941 23.6289C289.09 23.6289 290.08 23.8281 290.912 24.2266C291.744 24.6133 292.453 25.1641 293.039 25.8789L293.215 23.9805H297.188V42.4551C297.188 44.166 296.818 45.6191 296.08 46.8144C295.342 48.0098 294.316 48.918 293.004 49.5391C291.703 50.1719 290.191 50.4883 288.469 50.4883C287.742 50.4883 286.934 50.3828 286.043 50.1719C285.164 49.9726 284.309 49.6445 283.477 49.1875C282.645 48.7305 281.947 48.1328 281.385 47.3945L283.424 44.7578C284.092 45.5547 284.836 46.1406 285.656 46.5156C286.477 46.8906 287.338 47.0781 288.24 47.0781C289.658 47.0781 290.771 46.6855 291.58 45.9004C292.4 45.1152 292.811 43.9902 292.811 42.5254V41.2422C292.225 41.9101 291.527 42.4316 290.719 42.8066C289.91 43.1699 288.973 43.3516 287.906 43.3516C286.359 43.3516 285.018 42.9355 283.881 42.1035C282.744 41.2598 281.865 40.1113 281.244 38.6582C280.623 37.2051 280.312 35.5527 280.312 33.7012V33.332ZM284.672 33.7012C284.672 34.8262 284.824 35.8516 285.129 36.7773C285.434 37.6914 285.902 38.4238 286.535 38.9746C287.18 39.5137 288.006 39.7832 289.014 39.7832C289.963 39.7832 290.742 39.584 291.352 39.1855C291.961 38.7871 292.447 38.2598 292.811 37.6035V29.3242C292.447 28.668 291.961 28.1523 291.352 27.7773C290.742 27.3906 289.975 27.1973 289.049 27.1973C288.041 27.1973 287.215 27.4726 286.57 28.0234C285.926 28.5742 285.445 29.3125 285.129 30.2383C284.824 31.1641 284.672 32.1953 284.672 33.332V33.7012Z" fill="white"/>
<path d="M301.494 19.0058C301.494 18.3379 301.711 17.7871 302.145 17.3535C302.578 16.9082 303.182 16.6855 303.955 16.6855C304.729 16.6855 305.338 16.9082 305.783 17.3535C306.229 17.7871 306.451 18.3379 306.451 19.0058C306.451 19.6621 306.229 20.2129 305.783 20.6582C305.338 21.0918 304.729 21.3086 303.955 21.3086C303.182 21.3086 302.578 21.0918 302.145 20.6582C301.711 20.2129 301.494 19.6621 301.494 19.0058ZM306.135 43H301.775V23.9805H306.135V43Z" fill="white"/>
</svg>
